<svg width="150" height="100" viewBox="0 0 150 100" fill="none" xmlns="http://www.w3.org/2000/svg">
  <path d="M75 20C61.19 20 50 31.19 50 45C50 58.81 61.19 70 75 70C88.81 70 100 58.81 100 45C100 31.19 88.81 20 75 20ZM75 60C66.72 60 60 53.28 60 45C60 36.72 66.72 30 75 30C83.28 30 90 36.72 90 45C90 53.28 83.28 60 75 60Z" fill="white"/>
  <path d="M75 35C69.48 35 65 39.48 65 45C65 50.52 69.48 55 75 55C80.52 55 85 50.52 85 45C85 39.48 80.52 35 75 35ZM75 50C72.24 50 70 47.76 70 45C70 42.24 72.24 40 75 40C77.76 40 80 42.24 80 45C80 47.76 77.76 50 75 50Z" fill="white"/>
</svg>
